# xmcd
#
# Track frame offsets:
#	150
#	14490
#	32929
#	47824
#	67464
#	82835
#	98708
#	116070
#	128111
#	147296
#	175965
#	332969
#
# Disc length: 4440 seconds
#
# Revision: 0
# Processed by: cddbd v1.5.1PL2 Copyright (c) Steve Scherf et al.
# Submitted via: dBpowerAMP V4.0
#
DISCID=b111560c
DTITLE=Various Artist - Christmas Angels
DYEAR=2005
DGENRE=Country
TTITLE0=Amber Dotson - Blue Christmas
TTITLE1=Jamie O'Neal - O Holy Night
TTITLE2=Jennifer Hanson - I'll Be Home For Christmas
TTITLE3=Alison Krauss - Shimmy Down the Chimney (Fill Up My Stocking)
TTITLE4=Cyndi Thomson - Have Yourself A Merry Little Christmas
TTITLE5=Bethany Dillon - God Rest Ye Merry Gentlemen
TTITLE6=Nichole Nordeman - Do You Hear What I Hear
TTITLE7=Suzy Bogguss - Two-Step 'Round the Christmas Tree
TTITLE8=Deana Carter - Boogie Woogie Santa
TTITLE9=Tanya Tucker - Winter Wonderland
TTITLE10=DATA
TTITLE11=Copy protection - Copy Protection
EXTD=Copyprotected Christmas Compilation CD
EXTT0=
EXTT1=
EXTT2=
EXTT3=
EXTT4=
EXTT5=
EXTT6=
EXTT7=
EXTT8=
EXTT9=
EXTT10=
EXTT11=
PLAYORDER=
